<svg width="246" height="31" viewBox="0 0 246 31" fill="none" xmlns="http://www.w3.org/2000/svg">
<path d="M55.2812 16.5742H57.5312C57.4141 17.6523 57.1055 18.6172 56.6055 19.4688C56.1055 20.3203 55.3984 20.9961 54.4844 21.4961C53.5703 21.9883 52.4297 22.2344 51.0625 22.2344C50.0625 22.2344 49.1523 22.0469 48.332 21.6719C47.5195 21.2969 46.8203 20.7656 46.2344 20.0781C45.6484 19.3828 45.1953 18.5508 44.875 17.582C44.5625 16.6055 44.4062 15.5195 44.4062 14.3242V12.625C44.4062 11.4297 44.5625 10.3477 44.875 9.37891C45.1953 8.40234 45.6523 7.56641 46.2461 6.87109C46.8477 6.17578 47.5703 5.64062 48.4141 5.26562C49.2578 4.89062 50.207 4.70312 51.2617 4.70312C52.5508 4.70312 53.6406 4.94531 54.5312 5.42969C55.4219 5.91406 56.1133 6.58594 56.6055 7.44531C57.1055 8.29688 57.4141 9.28516 57.5312 10.4102H55.2812C55.1719 9.61328 54.9688 8.92969 54.6719 8.35938C54.375 7.78125 53.9531 7.33594 53.4062 7.02344C52.8594 6.71094 52.1445 6.55469 51.2617 6.55469C50.5039 6.55469 49.8359 6.69922 49.2578 6.98828C48.6875 7.27734 48.207 7.6875 47.8164 8.21875C47.4336 8.75 47.1445 9.38672 46.9492 10.1289C46.7539 10.8711 46.6562 11.6953 46.6562 12.6016V14.3242C46.6562 15.1602 46.7422 15.9453 46.9141 16.6797C47.0938 17.4141 47.3633 18.0586 47.7227 18.6133C48.082 19.168 48.5391 19.6055 49.0938 19.9258C49.6484 20.2383 50.3047 20.3945 51.0625 20.3945C52.0234 20.3945 52.7891 20.2422 53.3594 19.9375C53.9297 19.6328 54.3594 19.1953 54.6484 18.625C54.9453 18.0547 55.1562 17.3711 55.2812 16.5742ZM59.7109 15.8008V15.5312C59.7109 14.6172 59.8438 13.7695 60.1094 12.9883C60.375 12.1992 60.7578 11.5156 61.2578 10.9375C61.7578 10.3516 62.3633 9.89844 63.0742 9.57812C63.7852 9.25 64.582 9.08594 65.4648 9.08594C66.3555 9.08594 67.1562 9.25 67.8672 9.57812C68.5859 9.89844 69.1953 10.3516 69.6953 10.9375C70.2031 11.5156 70.5898 12.1992 70.8555 12.9883C71.1211 13.7695 71.2539 14.6172 71.2539 15.5312V15.8008C71.2539 16.7148 71.1211 17.5625 70.8555 18.3438C70.5898 19.125 70.2031 19.8086 69.6953 20.3945C69.1953 20.9727 68.5898 21.4258 67.8789 21.7539C67.1758 22.0742 66.3789 22.2344 65.4883 22.2344C64.5977 22.2344 63.7969 22.0742 63.0859 21.7539C62.375 21.4258 61.7656 20.9727 61.2578 20.3945C60.7578 19.8086 60.375 19.125 60.1094 18.3438C59.8438 17.5625 59.7109 16.7148 59.7109 15.8008ZM61.8789 15.5312V15.8008C61.8789 16.4336 61.9531 17.0312 62.1016 17.5938C62.25 18.1484 62.4727 18.6406 62.7695 19.0703C63.0742 19.5 63.4531 19.8398 63.9062 20.0898C64.3594 20.332 64.8867 20.4531 65.4883 20.4531C66.082 20.4531 66.6016 20.332 67.0469 20.0898C67.5 19.8398 67.875 19.5 68.1719 19.0703C68.4688 18.6406 68.6914 18.1484 68.8398 17.5938C68.9961 17.0312 69.0742 16.4336 69.0742 15.8008V15.5312C69.0742 14.9062 68.9961 14.3164 68.8398 13.7617C68.6914 13.1992 68.4648 12.7031 68.1602 12.2734C67.8633 11.8359 67.4883 11.4922 67.0352 11.2422C66.5898 10.9922 66.0664 10.8672 65.4648 10.8672C64.8711 10.8672 64.3477 10.9922 63.8945 11.2422C63.4492 11.4922 63.0742 11.8359 62.7695 12.2734C62.4727 12.7031 62.25 13.1992 62.1016 13.7617C61.9531 14.3164 61.8789 14.9062 61.8789 15.5312ZM76.1406 12.0273V22H73.9727V9.32031H76.0234L76.1406 12.0273ZM75.625 15.1797L74.7227 15.1445C74.7305 14.2773 74.8594 13.4766 75.1094 12.7422C75.3594 12 75.7109 11.3555 76.1641 10.8086C76.6172 10.2617 77.1562 9.83984 77.7812 9.54297C78.4141 9.23828 79.1133 9.08594 79.8789 9.08594C80.5039 9.08594 81.0664 9.17188 81.5664 9.34375C82.0664 9.50781 82.4922 9.77344 82.8438 10.1406C83.2031 10.5078 83.4766 10.9844 83.6641 11.5703C83.8516 12.1484 83.9453 12.8555 83.9453 13.6914V22H81.7656V13.668C81.7656 13.0039 81.668 12.4727 81.4727 12.0742C81.2773 11.668 80.9922 11.375 80.6172 11.1953C80.2422 11.0078 79.7812 10.9141 79.2344 10.9141C78.6953 10.9141 78.2031 11.0273 77.7578 11.2539C77.3203 11.4805 76.9414 11.793 76.6211 12.1914C76.3086 12.5898 76.0625 13.0469 75.8828 13.5625C75.7109 14.0703 75.625 14.6094 75.625 15.1797ZM91.0938 20.043L94.5625 9.32031H96.7773L92.2188 22H90.7656L91.0938 20.043ZM88.1992 9.32031L91.7734 20.1016L92.0195 22H90.5664L85.9727 9.32031H88.1992ZM103.961 22.2344C103.078 22.2344 102.277 22.0859 101.559 21.7891C100.848 21.4844 100.234 21.0586 99.7188 20.5117C99.2109 19.9648 98.8203 19.3164 98.5469 18.5664C98.2734 17.8164 98.1367 16.9961 98.1367 16.1055V15.6133C98.1367 14.582 98.2891 13.6641 98.5938 12.8594C98.8984 12.0469 99.3125 11.3594 99.8359 10.7969C100.359 10.2344 100.953 9.80859 101.617 9.51953C102.281 9.23047 102.969 9.08594 103.68 9.08594C104.586 9.08594 105.367 9.24219 106.023 9.55469C106.688 9.86719 107.23 10.3047 107.652 10.8672C108.074 11.4219 108.387 12.0781 108.59 12.8359C108.793 13.5859 108.895 14.4062 108.895 15.2969V16.2695H99.4258V14.5H106.727V14.3359C106.695 13.7734 106.578 13.2266 106.375 12.6953C106.18 12.1641 105.867 11.7266 105.438 11.3828C105.008 11.0391 104.422 10.8672 103.68 10.8672C103.188 10.8672 102.734 10.9727 102.32 11.1836C101.906 11.3867 101.551 11.6914 101.254 12.0977C100.957 12.5039 100.727 13 100.562 13.5859C100.398 14.1719 100.316 14.8477 100.316 15.6133V16.1055C100.316 16.707 100.398 17.2734 100.562 17.8047C100.734 18.3281 100.98 18.7891 101.301 19.1875C101.629 19.5859 102.023 19.8984 102.484 20.125C102.953 20.3516 103.484 20.4648 104.078 20.4648C104.844 20.4648 105.492 20.3086 106.023 19.9961C106.555 19.6836 107.02 19.2656 107.418 18.7422L108.73 19.7852C108.457 20.1992 108.109 20.5938 107.688 20.9688C107.266 21.3438 106.746 21.6484 106.129 21.8828C105.52 22.1172 104.797 22.2344 103.961 22.2344ZM113.594 12.0273V22H111.426V9.32031H113.477L113.594 12.0273ZM113.078 15.1797L112.176 15.1445C112.184 14.2773 112.312 13.4766 112.562 12.7422C112.812 12 113.164 11.3555 113.617 10.8086C114.07 10.2617 114.609 9.83984 115.234 9.54297C115.867 9.23828 116.566 9.08594 117.332 9.08594C117.957 9.08594 118.52 9.17188 119.02 9.34375C119.52 9.50781 119.945 9.77344 120.297 10.1406C120.656 10.5078 120.93 10.9844 121.117 11.5703C121.305 12.1484 121.398 12.8555 121.398 13.6914V22H119.219V13.668C119.219 13.0039 119.121 12.4727 118.926 12.0742C118.73 11.668 118.445 11.375 118.07 11.1953C117.695 11.0078 117.234 10.9141 116.688 10.9141C116.148 10.9141 115.656 11.0273 115.211 11.2539C114.773 11.4805 114.395 11.793 114.074 12.1914C113.762 12.5898 113.516 13.0469 113.336 13.5625C113.164 14.0703 113.078 14.6094 113.078 15.1797ZM129.766 20.4531C130.281 20.4531 130.758 20.3477 131.195 20.1367C131.633 19.9258 131.992 19.6367 132.273 19.2695C132.555 18.8945 132.715 18.4688 132.754 17.9922H134.816C134.777 18.7422 134.523 19.4414 134.055 20.0898C133.594 20.7305 132.988 21.25 132.238 21.6484C131.488 22.0391 130.664 22.2344 129.766 22.2344C128.812 22.2344 127.98 22.0664 127.27 21.7305C126.566 21.3945 125.98 20.9336 125.512 20.3477C125.051 19.7617 124.703 19.0898 124.469 18.332C124.242 17.5664 124.129 16.7578 124.129 15.9062V15.4141C124.129 14.5625 124.242 13.7578 124.469 13C124.703 12.2344 125.051 11.5586 125.512 10.9727C125.98 10.3867 126.566 9.92578 127.27 9.58984C127.98 9.25391 128.812 9.08594 129.766 9.08594C130.758 9.08594 131.625 9.28906 132.367 9.69531C133.109 10.0938 133.691 10.6406 134.113 11.3359C134.543 12.0234 134.777 12.8047 134.816 13.6797H132.754C132.715 13.1562 132.566 12.6836 132.309 12.2617C132.059 11.8398 131.715 11.5039 131.277 11.2539C130.848 10.9961 130.344 10.8672 129.766 10.8672C129.102 10.8672 128.543 11 128.09 11.2656C127.645 11.5234 127.289 11.875 127.023 12.3203C126.766 12.7578 126.578 13.2461 126.461 13.7852C126.352 14.3164 126.297 14.8594 126.297 15.4141V15.9062C126.297 16.4609 126.352 17.0078 126.461 17.5469C126.57 18.0859 126.754 18.5742 127.012 19.0117C127.277 19.4492 127.633 19.8008 128.078 20.0664C128.531 20.3242 129.094 20.4531 129.766 20.4531ZM139.609 9.32031V22H137.43V9.32031H139.609ZM137.266 5.95703C137.266 5.60547 137.371 5.30859 137.582 5.06641C137.801 4.82422 138.121 4.70312 138.543 4.70312C138.957 4.70312 139.273 4.82422 139.492 5.06641C139.719 5.30859 139.832 5.60547 139.832 5.95703C139.832 6.29297 139.719 6.58203 139.492 6.82422C139.273 7.05859 138.957 7.17578 138.543 7.17578C138.121 7.17578 137.801 7.05859 137.582 6.82422C137.371 6.58203 137.266 6.29297 137.266 5.95703ZM142.516 15.8008V15.5312C142.516 14.6172 142.648 13.7695 142.914 12.9883C143.18 12.1992 143.562 11.5156 144.062 10.9375C144.562 10.3516 145.168 9.89844 145.879 9.57812C146.59 9.25 147.387 9.08594 148.27 9.08594C149.16 9.08594 149.961 9.25 150.672 9.57812C151.391 9.89844 152 10.3516 152.5 10.9375C153.008 11.5156 153.395 12.1992 153.66 12.9883C153.926 13.7695 154.059 14.6172 154.059 15.5312V15.8008C154.059 16.7148 153.926 17.5625 153.66 18.3438C153.395 19.125 153.008 19.8086 152.5 20.3945C152 20.9727 151.395 21.4258 150.684 21.7539C149.98 22.0742 149.184 22.2344 148.293 22.2344C147.402 22.2344 146.602 22.0742 145.891 21.7539C145.18 21.4258 144.57 20.9727 144.062 20.3945C143.562 19.8086 143.18 19.125 142.914 18.3438C142.648 17.5625 142.516 16.7148 142.516 15.8008ZM144.684 15.5312V15.8008C144.684 16.4336 144.758 17.0312 144.906 17.5938C145.055 18.1484 145.277 18.6406 145.574 19.0703C145.879 19.5 146.258 19.8398 146.711 20.0898C147.164 20.332 147.691 20.4531 148.293 20.4531C148.887 20.4531 149.406 20.332 149.852 20.0898C150.305 19.8398 150.68 19.5 150.977 19.0703C151.273 18.6406 151.496 18.1484 151.645 17.5938C151.801 17.0312 151.879 16.4336 151.879 15.8008V15.5312C151.879 14.9062 151.801 14.3164 151.645 13.7617C151.496 13.1992 151.27 12.7031 150.965 12.2734C150.668 11.8359 150.293 11.4922 149.84 11.2422C149.395 10.9922 148.871 10.8672 148.27 10.8672C147.676 10.8672 147.152 10.9922 146.699 11.2422C146.254 11.4922 145.879 11.8359 145.574 12.2734C145.277 12.7031 145.055 13.1992 144.906 13.7617C144.758 14.3164 144.684 14.9062 144.684 15.5312ZM158.945 12.0273V22H156.777V9.32031H158.828L158.945 12.0273ZM158.43 15.1797L157.527 15.1445C157.535 14.2773 157.664 13.4766 157.914 12.7422C158.164 12 158.516 11.3555 158.969 10.8086C159.422 10.2617 159.961 9.83984 160.586 9.54297C161.219 9.23828 161.918 9.08594 162.684 9.08594C163.309 9.08594 163.871 9.17188 164.371 9.34375C164.871 9.50781 165.297 9.77344 165.648 10.1406C166.008 10.5078 166.281 10.9844 166.469 11.5703C166.656 12.1484 166.75 12.8555 166.75 13.6914V22H164.57V13.668C164.57 13.0039 164.473 12.4727 164.277 12.0742C164.082 11.668 163.797 11.375 163.422 11.1953C163.047 11.0078 162.586 10.9141 162.039 10.9141C161.5 10.9141 161.008 11.0273 160.562 11.2539C160.125 11.4805 159.746 11.793 159.426 12.1914C159.113 12.5898 158.867 13.0469 158.688 13.5625C158.516 14.0703 158.43 14.6094 158.43 15.1797ZM177.52 19.832V13.3047C177.52 12.8047 177.418 12.3711 177.215 12.0039C177.02 11.6289 176.723 11.3398 176.324 11.1367C175.926 10.9336 175.434 10.832 174.848 10.832C174.301 10.832 173.82 10.9258 173.406 11.1133C173 11.3008 172.68 11.5469 172.445 11.8516C172.219 12.1562 172.105 12.4844 172.105 12.8359H169.938C169.938 12.3828 170.055 11.9336 170.289 11.4883C170.523 11.043 170.859 10.6406 171.297 10.2812C171.742 9.91406 172.273 9.625 172.891 9.41406C173.516 9.19531 174.211 9.08594 174.977 9.08594C175.898 9.08594 176.711 9.24219 177.414 9.55469C178.125 9.86719 178.68 10.3398 179.078 10.9727C179.484 11.5977 179.688 12.3828 179.688 13.3281V19.2344C179.688 19.6562 179.723 20.1055 179.793 20.582C179.871 21.0586 179.984 21.4688 180.133 21.8125V22H177.871C177.762 21.75 177.676 21.418 177.613 21.0039C177.551 20.582 177.52 20.1914 177.52 19.832ZM177.895 14.3125L177.918 15.8359H175.727C175.109 15.8359 174.559 15.8867 174.074 15.9883C173.59 16.082 173.184 16.2266 172.855 16.4219C172.527 16.6172 172.277 16.8633 172.105 17.1602C171.934 17.4492 171.848 17.7891 171.848 18.1797C171.848 18.5781 171.938 18.9414 172.117 19.2695C172.297 19.5977 172.566 19.8594 172.926 20.0547C173.293 20.2422 173.742 20.3359 174.273 20.3359C174.938 20.3359 175.523 20.1953 176.031 19.9141C176.539 19.6328 176.941 19.2891 177.238 18.8828C177.543 18.4766 177.707 18.082 177.73 17.6992L178.656 18.7422C178.602 19.0703 178.453 19.4336 178.211 19.832C177.969 20.2305 177.645 20.6133 177.238 20.9805C176.84 21.3398 176.363 21.6406 175.809 21.8828C175.262 22.1172 174.645 22.2344 173.957 22.2344C173.098 22.2344 172.344 22.0664 171.695 21.7305C171.055 21.3945 170.555 20.9453 170.195 20.3828C169.844 19.8125 169.668 19.1758 169.668 18.4727C169.668 17.793 169.801 17.1953 170.066 16.6797C170.332 16.1562 170.715 15.7227 171.215 15.3789C171.715 15.0273 172.316 14.7617 173.02 14.582C173.723 14.4023 174.508 14.3125 175.375 14.3125H177.895ZM185.453 4V22H183.273V4H185.453Z" fill="black"/>
<circle cx="14.5" cy="16.5" r="14.5" fill="#BE1622"/>
</svg>
