<svg width="311" height="299" viewBox="0 0 311 299" fill="none" xmlns="http://www.w3.org/2000/svg">
<ellipse cx="158" cy="149.5" rx="115" ry="112.5" fill="#4E873E"/>
<path d="M155.683 158.882L154.568 36.4617L214.28 51.4927L155.683 158.882Z" fill="white"/>
<path d="M160.978 3.09091V14H159.657V4.47585H159.593L156.93 6.24432V4.90199L159.657 3.09091H160.978Z" fill="black"/>
<path d="M255.475 57.1491C254.85 57.1491 254.288 57.0249 253.787 56.7763C253.286 56.5277 252.885 56.1868 252.583 55.7536C252.281 55.3203 252.116 54.8267 252.088 54.2727H253.366C253.416 54.7663 253.639 55.1747 254.037 55.4979C254.438 55.8175 254.918 55.9773 255.475 55.9773C255.923 55.9773 256.321 55.8725 256.669 55.663C257.02 55.4535 257.295 55.1658 257.494 54.8001C257.697 54.4308 257.798 54.0135 257.798 53.5483C257.798 53.0724 257.693 52.6481 257.484 52.2752C257.278 51.8988 256.993 51.6023 256.631 51.3857C256.269 51.169 255.855 51.0589 255.39 51.0554C255.056 51.0518 254.714 51.1033 254.362 51.2099C254.011 51.3129 253.721 51.446 253.494 51.6094L252.258 51.4602L252.919 46.0909H258.586V47.2628H254.027L253.643 50.4801H253.707C253.931 50.3026 254.211 50.1552 254.549 50.038C254.886 49.9208 255.237 49.8622 255.603 49.8622C256.271 49.8622 256.866 50.022 257.388 50.3416C257.913 50.6577 258.325 51.0909 258.623 51.6413C258.925 52.1918 259.076 52.8203 259.076 53.527C259.076 54.223 258.92 54.8445 258.607 55.3913C258.299 55.9347 257.872 56.3643 257.329 56.6804C256.786 56.9929 256.168 57.1491 255.475 57.1491Z" fill="black"/>
<path d="M292.291 132.091V143H290.97V133.476H290.906L288.242 135.244V133.902L290.97 132.091H292.291ZM298.986 143.149C298.184 143.149 297.5 142.931 296.936 142.494C296.371 142.054 295.939 141.416 295.641 140.582C295.343 139.744 295.194 138.732 295.194 137.545C295.194 136.366 295.343 135.36 295.641 134.525C295.943 133.687 296.376 133.048 296.941 132.608C297.509 132.164 298.191 131.942 298.986 131.942C299.782 131.942 300.462 132.164 301.026 132.608C301.595 133.048 302.028 133.687 302.326 134.525C302.628 135.36 302.779 136.366 302.779 137.545C302.779 138.732 302.63 139.744 302.331 140.582C302.033 141.416 301.602 142.054 301.037 142.494C300.472 142.931 299.789 143.149 298.986 143.149ZM298.986 141.977C299.782 141.977 300.4 141.594 300.84 140.827C301.28 140.06 301.501 138.966 301.501 137.545C301.501 136.601 301.399 135.797 301.197 135.132C300.998 134.468 300.71 133.962 300.334 133.614C299.961 133.266 299.512 133.092 298.986 133.092C298.198 133.092 297.582 133.481 297.138 134.259C296.694 135.033 296.472 136.129 296.472 137.545C296.472 138.49 296.572 139.293 296.77 139.953C296.969 140.614 297.255 141.116 297.628 141.461C298.004 141.805 298.457 141.977 298.986 141.977Z" fill="black"/>
<path d="M261.415 234.091V245H260.094V235.476H260.03L257.367 237.244V235.902L260.094 234.091H261.415ZM267.962 245.149C267.337 245.149 266.774 245.025 266.273 244.776C265.772 244.528 265.371 244.187 265.069 243.754C264.767 243.32 264.602 242.827 264.574 242.273H265.852C265.902 242.766 266.126 243.175 266.523 243.498C266.925 243.817 267.404 243.977 267.962 243.977C268.409 243.977 268.807 243.873 269.155 243.663C269.506 243.453 269.782 243.166 269.981 242.8C270.183 242.431 270.284 242.013 270.284 241.548C270.284 241.072 270.179 240.648 269.97 240.275C269.764 239.899 269.48 239.602 269.118 239.386C268.755 239.169 268.342 239.059 267.876 239.055C267.543 239.052 267.2 239.103 266.848 239.21C266.497 239.313 266.207 239.446 265.98 239.609L264.744 239.46L265.405 234.091H271.072V235.263H266.513L266.129 238.48H266.193C266.417 238.303 266.697 238.155 267.035 238.038C267.372 237.921 267.724 237.862 268.09 237.862C268.757 237.862 269.352 238.022 269.874 238.342C270.4 238.658 270.811 239.091 271.11 239.641C271.412 240.192 271.563 240.82 271.563 241.527C271.563 242.223 271.406 242.844 271.094 243.391C270.785 243.935 270.359 244.364 269.815 244.68C269.272 244.993 268.654 245.149 267.962 245.149Z" fill="black"/>
<path d="M151.401 293V292.041L155.002 288.099C155.424 287.638 155.772 287.237 156.046 286.896C156.319 286.551 156.521 286.228 156.653 285.926C156.788 285.621 156.855 285.301 156.855 284.967C156.855 284.584 156.763 284.252 156.578 283.971C156.397 283.691 156.149 283.474 155.833 283.321C155.517 283.169 155.161 283.092 154.767 283.092C154.348 283.092 153.982 283.179 153.67 283.353C153.361 283.524 153.121 283.763 152.951 284.072C152.784 284.381 152.7 284.744 152.7 285.159H151.443C151.443 284.52 151.591 283.959 151.885 283.476C152.18 282.993 152.581 282.616 153.089 282.347C153.601 282.077 154.174 281.942 154.81 281.942C155.449 281.942 156.015 282.077 156.509 282.347C157.003 282.616 157.39 282.98 157.67 283.439C157.951 283.897 158.091 284.406 158.091 284.967C158.091 285.369 158.018 285.761 157.873 286.145C157.731 286.525 157.482 286.949 157.127 287.418C156.775 287.883 156.287 288.451 155.662 289.122L153.212 291.743V291.828H158.283V293H151.401ZM164.041 293.149C163.238 293.149 162.555 292.931 161.99 292.494C161.426 292.054 160.994 291.416 160.696 290.582C160.398 289.744 160.248 288.732 160.248 287.545C160.248 286.366 160.398 285.36 160.696 284.525C160.998 283.687 161.431 283.048 161.996 282.608C162.564 282.164 163.246 281.942 164.041 281.942C164.836 281.942 165.517 282.164 166.081 282.608C166.649 283.048 167.083 283.687 167.381 284.525C167.683 285.36 167.834 286.366 167.834 287.545C167.834 288.732 167.684 289.744 167.386 290.582C167.088 291.416 166.656 292.054 166.092 292.494C165.527 292.931 164.844 293.149 164.041 293.149ZM164.041 291.977C164.836 291.977 165.454 291.594 165.895 290.827C166.335 290.06 166.555 288.966 166.555 287.545C166.555 286.601 166.454 285.797 166.252 285.132C166.053 284.468 165.765 283.962 165.389 283.614C165.016 283.266 164.567 283.092 164.041 283.092C163.253 283.092 162.637 283.481 162.193 284.259C161.749 285.033 161.527 286.129 161.527 287.545C161.527 288.49 161.626 289.293 161.825 289.953C162.024 290.614 162.31 291.116 162.683 291.461C163.059 291.805 163.512 291.977 164.041 291.977Z" fill="black"/>
<path d="M44.5253 245V244.041L48.1261 240.099C48.5487 239.638 48.8967 239.237 49.1701 238.896C49.4436 238.551 49.646 238.228 49.7774 237.926C49.9123 237.621 49.9798 237.301 49.9798 236.967C49.9798 236.584 49.8875 236.252 49.7028 235.971C49.5217 235.691 49.2731 235.474 48.9571 235.321C48.641 235.169 48.2859 235.092 47.8917 235.092C47.4727 235.092 47.1069 235.179 46.7944 235.353C46.4855 235.524 46.2458 235.763 46.0753 236.072C45.9084 236.381 45.825 236.744 45.825 237.159H44.5679C44.5679 236.52 44.7152 235.959 45.01 235.476C45.3047 234.993 45.706 234.616 46.2138 234.347C46.7252 234.077 47.2987 233.942 47.9343 233.942C48.5736 233.942 49.14 234.077 49.6336 234.347C50.1272 234.616 50.5142 234.98 50.7948 235.439C51.0753 235.897 51.2156 236.406 51.2156 236.967C51.2156 237.369 51.1428 237.761 50.9972 238.145C50.8552 238.525 50.6066 238.949 50.2515 239.418C49.8999 239.883 49.4116 240.451 48.7866 241.122L46.3363 243.743V243.828H51.4074V245H44.5253ZM57.0164 245.149C56.3914 245.149 55.8285 245.025 55.3278 244.776C54.8271 244.528 54.4258 244.187 54.124 243.754C53.8221 243.32 53.657 242.827 53.6286 242.273H54.907C54.9567 242.766 55.1804 243.175 55.5782 243.498C55.9794 243.817 56.4589 243.977 57.0164 243.977C57.4638 243.977 57.8616 243.873 58.2096 243.663C58.5611 243.453 58.8363 243.166 59.0352 242.8C59.2376 242.431 59.3388 242.013 59.3388 241.548C59.3388 241.072 59.2341 240.648 59.0245 240.275C58.8186 239.899 58.5345 239.602 58.1723 239.386C57.8101 239.169 57.3964 239.059 56.9312 239.055C56.5973 239.052 56.2547 239.103 55.9031 239.21C55.5515 239.313 55.2621 239.446 55.0348 239.609L53.7991 239.46L54.4596 234.091H60.1272V235.263H55.5675L55.184 238.48H55.2479C55.4716 238.303 55.7522 238.155 56.0895 238.038C56.4269 237.921 56.7785 237.862 57.1442 237.862C57.8118 237.862 58.4066 238.022 58.9287 238.342C59.4542 238.658 59.8662 239.091 60.1645 239.641C60.4663 240.192 60.6172 240.82 60.6172 241.527C60.6172 242.223 60.461 242.844 60.1485 243.391C59.8395 243.935 59.4134 244.364 58.8701 244.68C58.3267 244.993 57.7089 245.149 57.0164 245.149Z" fill="black"/>
<path d="M10.8525 143.149C10.1493 143.149 9.52255 143.028 8.97212 142.787C8.42525 142.545 7.99023 142.21 7.66708 141.78C7.34748 141.347 7.17347 140.844 7.14506 140.273H8.48739C8.5158 140.624 8.63654 140.928 8.84961 141.184C9.06268 141.436 9.34144 141.631 9.6859 141.77C10.0304 141.908 10.4121 141.977 10.8311 141.977C11.2999 141.977 11.7154 141.896 12.0776 141.732C12.4398 141.569 12.7239 141.342 12.9299 141.05C13.1358 140.759 13.2388 140.422 13.2388 140.038C13.2388 139.637 13.1394 139.284 12.9405 138.978C12.7417 138.669 12.4505 138.428 12.0669 138.254C11.6834 138.08 11.2147 137.993 10.6607 137.993H9.78711V136.821H10.6607C11.0939 136.821 11.4739 136.743 11.8006 136.587C12.1309 136.43 12.3883 136.21 12.573 135.926C12.7612 135.642 12.8553 135.308 12.8553 134.925C12.8553 134.555 12.7736 134.234 12.6103 133.961C12.4469 133.687 12.2161 133.474 11.9178 133.321C11.623 133.169 11.275 133.092 10.8738 133.092C10.4973 133.092 10.1422 133.162 9.80842 133.3C9.47816 133.435 9.20827 133.632 8.99876 133.891C8.78924 134.147 8.6756 134.456 8.65785 134.818H7.37944C7.40075 134.246 7.57298 133.746 7.89613 133.316C8.21928 132.883 8.64187 132.545 9.16389 132.304C9.68945 132.062 10.2665 131.942 10.8951 131.942C11.5698 131.942 12.1486 132.078 12.6316 132.352C13.1145 132.622 13.4856 132.979 13.7449 133.423C14.0041 133.866 14.1337 134.346 14.1337 134.861C14.1337 135.475 13.9721 135.999 13.649 136.432C13.3294 136.865 12.8944 137.165 12.3439 137.332V137.418C13.0328 137.531 13.5708 137.824 13.9579 138.297C14.345 138.765 14.5385 139.346 14.5385 140.038C14.5385 140.631 14.377 141.164 14.0538 141.636C13.7342 142.105 13.2974 142.474 12.7434 142.744C12.1895 143.014 11.5591 143.149 10.8525 143.149ZM20.2754 143.149C19.4728 143.149 18.7892 142.931 18.2246 142.494C17.66 142.054 17.2285 141.416 16.9302 140.582C16.6319 139.744 16.4828 138.732 16.4828 137.545C16.4828 136.366 16.6319 135.36 16.9302 134.525C17.2321 133.687 17.6653 133.048 18.2299 132.608C18.7981 132.164 19.4799 131.942 20.2754 131.942C21.0708 131.942 21.7509 132.164 22.3155 132.608C22.8837 133.048 23.3169 133.687 23.6152 134.525C23.9171 135.36 24.068 136.366 24.068 137.545C24.068 138.732 23.9189 139.744 23.6206 140.582C23.3223 141.416 22.8908 142.054 22.3262 142.494C21.7615 142.931 21.0779 143.149 20.2754 143.149ZM20.2754 141.977C21.0708 141.977 21.6887 141.594 22.1291 140.827C22.5694 140.06 22.7896 138.966 22.7896 137.545C22.7896 136.601 22.6884 135.797 22.486 135.132C22.2871 134.468 21.9995 133.962 21.623 133.614C21.2502 133.266 20.801 133.092 20.2754 133.092C19.487 133.092 18.8709 133.481 18.427 134.259C17.9831 135.033 17.7612 136.129 17.7612 137.545C17.7612 138.49 17.8606 139.293 18.0595 139.953C18.2583 140.614 18.5442 141.116 18.9171 141.461C19.2935 141.805 19.7463 141.977 20.2754 141.977Z" fill="black"/>
<path d="M53.977 51.1491C53.2738 51.1491 52.6471 51.0284 52.0966 50.7869C51.5498 50.5455 51.1147 50.2099 50.7916 49.7802C50.472 49.3469 50.298 48.8445 50.2696 48.2727H51.6119C51.6403 48.6243 51.7611 48.9279 51.9741 49.1836C52.1872 49.4357 52.466 49.631 52.8104 49.7695C53.1549 49.908 53.5366 49.9773 53.9557 49.9773C54.4244 49.9773 54.8399 49.8956 55.2021 49.7322C55.5643 49.5689 55.8484 49.3416 56.0544 49.0504C56.2603 48.7592 56.3633 48.4219 56.3633 48.0384C56.3633 47.6371 56.2639 47.2837 56.065 46.9783C55.8662 46.6694 55.575 46.4279 55.1915 46.2539C54.8079 46.0799 54.3392 45.9929 53.7852 45.9929H52.9116V44.821H53.7852C54.2184 44.821 54.5984 44.7429 54.9251 44.5866C55.2554 44.4304 55.5128 44.2102 55.6975 43.9261C55.8857 43.642 55.9798 43.3082 55.9798 42.9247C55.9798 42.5554 55.8981 42.234 55.7348 41.9606C55.5714 41.6871 55.3406 41.4741 55.0423 41.3214C54.7476 41.1687 54.3995 41.0923 53.9983 41.0923C53.6218 41.0923 53.2667 41.1616 52.9329 41.3001C52.6027 41.435 52.3328 41.6321 52.1233 41.8913C51.9138 42.147 51.8001 42.456 51.7824 42.8182H50.504C50.5253 42.2464 50.6975 41.7457 51.0206 41.3161C51.3438 40.8828 51.7664 40.5455 52.2884 40.304C52.814 40.0625 53.391 39.9418 54.0196 39.9418C54.6943 39.9418 55.2731 40.0785 55.7561 40.3519C56.239 40.6218 56.6101 40.9787 56.8694 41.4226C57.1286 41.8665 57.2582 42.3459 57.2582 42.8608C57.2582 43.4751 57.0966 43.9989 56.7735 44.4322C56.4539 44.8654 56.0189 45.1655 55.4684 45.3324V45.4176C56.1574 45.5312 56.6954 45.8242 57.0824 46.2965C57.4695 46.7653 57.663 47.3459 57.663 48.0384C57.663 48.6314 57.5015 49.1641 57.1783 49.6364C56.8587 50.1051 56.4219 50.4744 55.8679 50.7443C55.314 51.0142 54.6836 51.1491 53.977 51.1491ZM63.2508 51.1491C62.6258 51.1491 62.0629 51.0249 61.5622 50.7763C61.0615 50.5277 60.6602 50.1868 60.3584 49.7536C60.0565 49.3203 59.8914 48.8267 59.863 48.2727H61.1414C61.1911 48.7663 61.4148 49.1747 61.8125 49.4979C62.2138 49.8175 62.6932 49.9773 63.2508 49.9773C63.6982 49.9773 64.0959 49.8725 64.4439 49.663C64.7955 49.4535 65.0707 49.1658 65.2696 48.8001C65.472 48.4308 65.5732 48.0135 65.5732 47.5483C65.5732 47.0724 65.4684 46.6481 65.2589 46.2752C65.053 45.8988 64.7689 45.6023 64.4066 45.3857C64.0444 45.169 63.6307 45.0589 63.1655 45.0554C62.8317 45.0518 62.489 45.1033 62.1375 45.2099C61.7859 45.3129 61.4965 45.446 61.2692 45.6094L60.0334 45.4602L60.6939 40.0909H66.3616V41.2628H61.8019L61.4184 44.4801H61.4823C61.706 44.3026 61.9866 44.1552 62.3239 44.038C62.6613 43.9208 63.0128 43.8622 63.3786 43.8622C64.0462 43.8622 64.641 44.022 65.163 44.3416C65.6886 44.6577 66.1005 45.0909 66.3988 45.6413C66.7007 46.1918 66.8516 46.8203 66.8516 47.527C66.8516 48.223 66.6954 48.8445 66.3829 49.3913C66.0739 49.9347 65.6478 50.3643 65.1044 50.6804C64.5611 50.9929 63.9432 51.1491 63.2508 51.1491Z" fill="black"/>
<path d="M182.309 43.1113C183.703 43.1113 184.712 43.4593 186.046 43.8299C187.282 44.1734 189.793 44.6146 190.708 45.3469C191.812 46.2298 194.369 46.2022 195.802 46.5605C197.534 46.9935 198.914 48.2179 200.274 49.2752C202.09 50.6876 204.804 51.0532 206.964 51.6705C207.827 51.9168 211.98 52.61 211.611 51.3191C211.169 49.7706 209.889 48.6581 208.178 48.5726C207.412 48.5343 209.632 49.6565 210.126 50.0097C210.907 50.5676 211.644 50.9355 212.49 51.383C213.83 52.0929 209.936 49.7405 208.609 49.0037C207.405 48.3348 206.236 47.5215 205.016 46.9118C203.806 46.3064 202.358 46.1171 201.12 45.5545C199.877 44.9896 198.048 44.4459 196.697 44.277C195.538 44.1322 194.116 43.8077 193.168 43.1752C192.528 42.7488 190.92 42.575 190.134 42.3129C189.442 42.0825 188.692 41.9527 187.994 41.738C186.593 41.3069 185.072 40.5172 183.618 40.2529C182.957 40.1327 182.354 39.6621 181.734 39.6621C181.203 39.6621 179.754 39.6307 179.435 39.2309C178.871 38.5261 175.381 39.1335 174.548 39.0872C173.007 39.0016 171.4 38.5124 169.806 38.5124C168.735 38.5124 167.483 38.7027 166.5 38.2888C165.842 38.0117 164.634 37.9575 163.913 37.9375C162.917 37.9098 162 37.3626 161.039 37.3626C159.557 37.3626 158.181 37.0752 156.711 37.0752C155.972 37.0752 155.232 37.0752 154.492 37.0752C154.277 37.0752 156.393 37.762 156.951 37.8736C161.909 38.8652 166.844 36.6285 171.371 39.6461C174.248 41.5643 178.271 41.2832 181.303 42.9676C181.842 43.2671 178.643 42.2527 177.997 41.8338C177.12 41.264 176.328 40.7477 175.379 40.3008C174.749 40.0045 176.565 41.0356 177.199 41.3228C182.133 43.5586 187.182 44.6844 192.369 46.0495C194.255 46.5457 196.311 47.4228 198.262 47.4228C200.392 47.4228 202.968 47.3707 204.873 48.4288C205.897 48.9982 206.641 49.8265 207.603 50.361C208.563 50.8945 210.19 51.1432 210.19 52.3092" stroke="white" stroke-width="3" stroke-linecap="round"/>
</svg>
