<svg width="164" height="162" viewBox="0 0 164 162" fill="none" xmlns="http://www.w3.org/2000/svg">
<path d="M158.5 72.5C158.5 87.1154 147.281 98.5 134 98.5C120.719 98.5 109.5 87.1154 109.5 72.5C109.5 57.8846 120.719 46.5 134 46.5C147.281 46.5 158.5 57.8846 158.5 72.5Z" fill="#D9D9D9" fill-opacity="0.06" stroke="white" stroke-width="11"/>
<rect x="2.5" y="17.5" width="119" height="118" rx="8.5" fill="#F7E4B6" stroke="white" stroke-width="5"/>
<path d="M120.507 13.9399C120.507 13.9399 120.506 13.9457 120.503 13.9575C120.504 13.9458 120.506 13.94 120.507 13.9399ZM120.147 13.5288C120.362 13.7664 120.451 13.9218 120.486 14C120.451 14.0782 120.362 14.2336 120.147 14.4712C119.69 14.9752 118.851 15.6294 117.479 16.3619C114.741 17.8239 110.548 19.2485 105.07 20.4855C94.1702 22.9466 78.941 24.5 62 24.5C45.059 24.5 29.8298 22.9466 18.9303 20.4855C13.4523 19.2485 9.25907 17.8239 6.52061 16.3619C5.14856 15.6294 4.30986 14.9752 3.85312 14.4712C3.63779 14.2336 3.54879 14.0782 3.51397 14C3.54879 13.9218 3.63779 13.7664 3.85312 13.5288C4.30986 13.0248 5.14856 12.3706 6.52061 11.6381C9.25907 10.1761 13.4523 8.75152 18.9303 7.51455C29.8298 5.05338 45.059 3.5 62 3.5C78.941 3.5 94.1702 5.05338 105.07 7.51455C110.548 8.75152 114.741 10.1761 117.479 11.6381C118.851 12.3706 119.69 13.0248 120.147 13.5288ZM3.49344 13.9399C3.49397 13.94 3.49584 13.9459 3.49744 13.9575C3.49372 13.9457 3.49291 13.9399 3.49344 13.9399ZM3.49344 14.0601C3.49291 14.0601 3.49372 14.0543 3.49744 14.0425C3.49584 14.0541 3.49397 14.06 3.49344 14.0601ZM120.503 14.0425C120.506 14.0543 120.507 14.0601 120.507 14.0601C120.506 14.0601 120.504 14.0542 120.503 14.0425Z" fill="#F7E4B6" stroke="white" stroke-width="7"/>
<path d="M122 138.5C122 140.976 120.684 143.567 117.793 146.158C114.903 148.747 110.609 151.171 105.132 153.247C94.1913 157.394 78.9424 160 62 160C45.0576 160 29.8087 157.394 18.8682 153.247C13.3909 151.171 9.09659 148.747 6.20701 146.158C3.31639 143.567 2 140.976 2 138.5C2 136.024 3.31639 133.433 6.20701 130.842C9.09659 128.253 13.3909 125.829 18.8682 123.753C29.8087 119.606 45.0576 117 62 117C78.9424 117 94.1913 119.606 105.132 123.753C110.609 125.829 114.903 128.253 117.793 130.842C120.684 133.433 122 136.024 122 138.5Z" fill="#F7E4B6" stroke="white" stroke-width="4"/>
<rect x="12" y="41" width="100" height="88" rx="14" fill="#512F07"/>
<ellipse cx="62" cy="128" rx="50" ry="27" fill="#512F07"/>
<path d="M52.2947 107L67.1413 77.6136V77.375H49.9084V72.0909H73.6868V77.4943L58.8572 107H52.2947Z" fill="#030303"/>
</svg>
