<svg width="231" height="230" viewBox="0 0 231 230" fill="none" xmlns="http://www.w3.org/2000/svg">
<path d="M225.5 102.5C225.5 124.28 208.699 141.5 188.5 141.5C168.301 141.5 151.5 124.28 151.5 102.5C151.5 80.7198 168.301 63.5 188.5 63.5C208.699 63.5 225.5 80.7198 225.5 102.5Z" fill="#D9D9D9" fill-opacity="0.06" stroke="white" stroke-width="11"/>
<rect x="2.5" y="23.5" width="169" height="170" rx="8.5" fill="#F7E4B6" stroke="white" stroke-width="5"/>
<path d="M170.5 20C170.5 20.2795 170.392 20.8341 169.618 21.7036C168.825 22.5946 167.494 23.6216 165.492 24.7098C161.491 26.884 155.471 28.9524 147.734 30.7311C132.316 34.2756 110.841 36.5 87 36.5C63.1588 36.5 41.6843 34.2756 26.2659 30.7311C18.5285 28.9524 12.5086 26.884 8.50826 24.7098C6.50613 23.6216 5.17495 22.5946 4.38184 21.7036C3.60788 20.8341 3.5 20.2795 3.5 20C3.5 19.7205 3.60788 19.1659 4.38184 18.2964C5.17495 17.4054 6.50613 16.3784 8.50826 15.2902C12.5086 13.116 18.5285 11.0476 26.2659 9.26889C41.6843 5.72442 63.1588 3.5 87 3.5C110.841 3.5 132.316 5.72442 147.734 9.26889C155.471 11.0476 161.491 13.116 165.492 15.2902C167.494 16.3784 168.825 17.4054 169.618 18.2964C170.392 19.1659 170.5 19.7205 170.5 20Z" fill="#F7E4B6" stroke="white" stroke-width="7"/>
<path d="M172 196.5C172 200.369 169.971 204.278 165.817 208.061C161.661 211.844 155.537 215.342 147.8 218.322C132.338 224.275 110.843 228 87 228C63.1571 228 41.6618 224.275 26.2004 218.322C18.463 215.342 12.3387 211.844 8.18328 208.061C4.0286 204.278 2 200.369 2 196.5C2 192.631 4.0286 188.722 8.18328 184.939C12.3387 181.156 18.463 177.658 26.2004 174.678C41.6618 168.725 63.1571 165 87 165C110.843 165 132.338 168.725 147.8 174.678C155.537 177.658 161.661 181.156 165.817 184.939C169.971 188.722 172 192.631 172 196.5Z" fill="#F7E4B6" stroke="white" stroke-width="4"/>
<rect x="16" y="133" width="141" height="50" rx="14" fill="#512F07"/>
<ellipse cx="86.5" cy="181.5" rx="70.5" ry="38.5" fill="#512F07"/>
</svg>
