<svg width="199" height="39" viewBox="0 0 199 39" fill="none" xmlns="http://www.w3.org/2000/svg">
<path d="M58.1172 14.9297V16.0078C58.1172 17.2891 57.957 18.4375 57.6367 19.4531C57.3164 20.4688 56.8555 21.332 56.2539 22.043C55.6523 22.7539 54.9297 23.2969 54.0859 23.6719C53.25 24.0469 52.3125 24.2344 51.2734 24.2344C50.2656 24.2344 49.3398 24.0469 48.4961 23.6719C47.6602 23.2969 46.9336 22.7539 46.3164 22.043C45.707 21.332 45.2344 20.4688 44.8984 19.4531C44.5625 18.4375 44.3945 17.2891 44.3945 16.0078V14.9297C44.3945 13.6484 44.5586 12.5039 44.8867 11.4961C45.2227 10.4805 45.6953 9.61719 46.3047 8.90625C46.9141 8.1875 47.6367 7.64062 48.4727 7.26562C49.3164 6.89062 50.2422 6.70312 51.25 6.70312C52.2891 6.70312 53.2266 6.89062 54.0625 7.26562C54.9062 7.64062 55.6289 8.1875 56.2305 8.90625C56.8398 9.61719 57.3047 10.4805 57.625 11.4961C57.9531 12.5039 58.1172 13.6484 58.1172 14.9297ZM55.8789 16.0078V14.9062C55.8789 13.8906 55.7734 12.9922 55.5625 12.2109C55.3594 11.4297 55.0586 10.7734 54.6602 10.2422C54.2617 9.71094 53.7734 9.30859 53.1953 9.03516C52.625 8.76172 51.9766 8.625 51.25 8.625C50.5469 8.625 49.9102 8.76172 49.3398 9.03516C48.7773 9.30859 48.293 9.71094 47.8867 10.2422C47.4883 10.7734 47.1797 11.4297 46.9609 12.2109C46.7422 12.9922 46.6328 13.8906 46.6328 14.9062V16.0078C46.6328 17.0312 46.7422 17.9375 46.9609 18.7266C47.1797 19.5078 47.4922 20.168 47.8984 20.707C48.3125 21.2383 48.8008 21.6406 49.3633 21.9141C49.9336 22.1875 50.5703 22.3242 51.2734 22.3242C52.0078 22.3242 52.6602 22.1875 53.2305 21.9141C53.8008 21.6406 54.2812 21.2383 54.6719 20.707C55.0703 20.168 55.3711 19.5078 55.5742 18.7266C55.7773 17.9375 55.8789 17.0312 55.8789 16.0078ZM63.3438 13.3125V24H61.1758V11.3203H63.2852L63.3438 13.3125ZM67.3047 11.25L67.293 13.2656C67.1133 13.2266 66.9414 13.2031 66.7773 13.1953C66.6211 13.1797 66.4414 13.1719 66.2383 13.1719C65.7383 13.1719 65.2969 13.25 64.9141 13.4062C64.5312 13.5625 64.207 13.7812 63.9414 14.0625C63.6758 14.3438 63.4648 14.6797 63.3086 15.0703C63.1602 15.4531 63.0625 15.875 63.0156 16.3359L62.4062 16.6875C62.4062 15.9219 62.4805 15.2031 62.6289 14.5312C62.7852 13.8594 63.0234 13.2656 63.3438 12.75C63.6641 12.2266 64.0703 11.8203 64.5625 11.5312C65.0625 11.2344 65.6562 11.0859 66.3438 11.0859C66.5 11.0859 66.6797 11.1055 66.8828 11.1445C67.0859 11.1758 67.2266 11.2109 67.3047 11.25ZM77.2891 11.3203H79.2578V23.7305C79.2578 24.8477 79.0312 25.8008 78.5781 26.5898C78.125 27.3789 77.4922 27.9766 76.6797 28.3828C75.875 28.7969 74.9453 29.0039 73.8906 29.0039C73.4531 29.0039 72.9375 28.9336 72.3438 28.793C71.7578 28.6602 71.1797 28.4297 70.6094 28.1016C70.0469 27.7812 69.5742 27.3477 69.1914 26.8008L70.3281 25.5117C70.8594 26.1523 71.4141 26.5977 71.9922 26.8477C72.5781 27.0977 73.1562 27.2227 73.7266 27.2227C74.4141 27.2227 75.0078 27.0938 75.5078 26.8359C76.0078 26.5781 76.3945 26.1953 76.668 25.6875C76.9492 25.1875 77.0898 24.5703 77.0898 23.8359V14.1094L77.2891 11.3203ZM68.5586 17.8008V17.5547C68.5586 16.5859 68.6719 15.707 68.8984 14.918C69.1328 14.1211 69.4648 13.4375 69.8945 12.8672C70.332 12.2969 70.8594 11.8594 71.4766 11.5547C72.0938 11.2422 72.7891 11.0859 73.5625 11.0859C74.3594 11.0859 75.0547 11.2266 75.6484 11.5078C76.25 11.7812 76.7578 12.1836 77.1719 12.7148C77.5938 13.2383 77.9258 13.8711 78.168 14.6133C78.4102 15.3555 78.5781 16.1953 78.6719 17.1328V18.2109C78.5859 19.1406 78.418 19.9766 78.168 20.7188C77.9258 21.4609 77.5938 22.0938 77.1719 22.6172C76.7578 23.1406 76.25 23.543 75.6484 23.8242C75.0469 24.0977 74.3438 24.2344 73.5391 24.2344C72.7812 24.2344 72.0938 24.0742 71.4766 23.7539C70.8672 23.4336 70.3438 22.9844 69.9062 22.4062C69.4688 21.8281 69.1328 21.1484 68.8984 20.3672C68.6719 19.5781 68.5586 18.7227 68.5586 17.8008ZM70.7266 17.5547V17.8008C70.7266 18.4336 70.7891 19.0273 70.9141 19.582C71.0469 20.1367 71.2461 20.625 71.5117 21.0469C71.7852 21.4688 72.1328 21.8008 72.5547 22.043C72.9766 22.2773 73.4805 22.3945 74.0664 22.3945C74.7852 22.3945 75.3789 22.2422 75.8477 21.9375C76.3164 21.6328 76.6875 21.2305 76.9609 20.7305C77.2422 20.2305 77.4609 19.6875 77.6172 19.1016V16.2773C77.5312 15.8477 77.3984 15.4336 77.2188 15.0352C77.0469 14.6289 76.8203 14.2695 76.5391 13.957C76.2656 13.6367 75.9258 13.3828 75.5195 13.1953C75.1133 13.0078 74.6367 12.9141 74.0898 12.9141C73.4961 12.9141 72.9844 13.0391 72.5547 13.2891C72.1328 13.5312 71.7852 13.8672 71.5117 14.2969C71.2461 14.7188 71.0469 15.2109 70.9141 15.7734C70.7891 16.3281 70.7266 16.9219 70.7266 17.5547ZM90.0273 21.832V15.3047C90.0273 14.8047 89.9258 14.3711 89.7227 14.0039C89.5273 13.6289 89.2305 13.3398 88.832 13.1367C88.4336 12.9336 87.9414 12.832 87.3555 12.832C86.8086 12.832 86.3281 12.9258 85.9141 13.1133C85.5078 13.3008 85.1875 13.5469 84.9531 13.8516C84.7266 14.1562 84.6133 14.4844 84.6133 14.8359H82.4453C82.4453 14.3828 82.5625 13.9336 82.7969 13.4883C83.0312 13.043 83.3672 12.6406 83.8047 12.2812C84.25 11.9141 84.7812 11.625 85.3984 11.4141C86.0234 11.1953 86.7188 11.0859 87.4844 11.0859C88.4062 11.0859 89.2188 11.2422 89.9219 11.5547C90.6328 11.8672 91.1875 12.3398 91.5859 12.9727C91.9922 13.5977 92.1953 14.3828 92.1953 15.3281V21.2344C92.1953 21.6562 92.2305 22.1055 92.3008 22.582C92.3789 23.0586 92.4922 23.4688 92.6406 23.8125V24H90.3789C90.2695 23.75 90.1836 23.418 90.1211 23.0039C90.0586 22.582 90.0273 22.1914 90.0273 21.832ZM90.4023 16.3125L90.4258 17.8359H88.2344C87.6172 17.8359 87.0664 17.8867 86.582 17.9883C86.0977 18.082 85.6914 18.2266 85.3633 18.4219C85.0352 18.6172 84.7852 18.8633 84.6133 19.1602C84.4414 19.4492 84.3555 19.7891 84.3555 20.1797C84.3555 20.5781 84.4453 20.9414 84.625 21.2695C84.8047 21.5977 85.0742 21.8594 85.4336 22.0547C85.8008 22.2422 86.25 22.3359 86.7812 22.3359C87.4453 22.3359 88.0312 22.1953 88.5391 21.9141C89.0469 21.6328 89.4492 21.2891 89.7461 20.8828C90.0508 20.4766 90.2148 20.082 90.2383 19.6992L91.1641 20.7422C91.1094 21.0703 90.9609 21.4336 90.7188 21.832C90.4766 22.2305 90.1523 22.6133 89.7461 22.9805C89.3477 23.3398 88.8711 23.6406 88.3164 23.8828C87.7695 24.1172 87.1523 24.2344 86.4648 24.2344C85.6055 24.2344 84.8516 24.0664 84.2031 23.7305C83.5625 23.3945 83.0625 22.9453 82.7031 22.3828C82.3516 21.8125 82.1758 21.1758 82.1758 20.4727C82.1758 19.793 82.3086 19.1953 82.5742 18.6797C82.8398 18.1562 83.2227 17.7227 83.7227 17.3789C84.2227 17.0273 84.8242 16.7617 85.5273 16.582C86.2305 16.4023 87.0156 16.3125 87.8828 16.3125H90.4023ZM86.5234 9.44531L88.7969 6H91.4102L88.2695 9.44531H86.5234ZM97.7734 14.0273V24H95.6055V11.3203H97.6562L97.7734 14.0273ZM97.2578 17.1797L96.3555 17.1445C96.3633 16.2773 96.4922 15.4766 96.7422 14.7422C96.9922 14 97.3438 13.3555 97.7969 12.8086C98.25 12.2617 98.7891 11.8398 99.4141 11.543C100.047 11.2383 100.746 11.0859 101.512 11.0859C102.137 11.0859 102.699 11.1719 103.199 11.3438C103.699 11.5078 104.125 11.7734 104.477 12.1406C104.836 12.5078 105.109 12.9844 105.297 13.5703C105.484 14.1484 105.578 14.8555 105.578 15.6914V24H103.398V15.668C103.398 15.0039 103.301 14.4727 103.105 14.0742C102.91 13.668 102.625 13.375 102.25 13.1953C101.875 13.0078 101.414 12.9141 100.867 12.9141C100.328 12.9141 99.8359 13.0273 99.3906 13.2539C98.9531 13.4805 98.5742 13.793 98.2539 14.1914C97.9414 14.5898 97.6953 15.0469 97.5156 15.5625C97.3438 16.0703 97.2578 16.6094 97.2578 17.1797ZM111.227 11.3203V24H109.047V11.3203H111.227ZM108.883 7.95703C108.883 7.60547 108.988 7.30859 109.199 7.06641C109.418 6.82422 109.738 6.70312 110.16 6.70312C110.574 6.70312 110.891 6.82422 111.109 7.06641C111.336 7.30859 111.449 7.60547 111.449 7.95703C111.449 8.29297 111.336 8.58203 111.109 8.82422C110.891 9.05859 110.574 9.17578 110.16 9.17578C109.738 9.17578 109.418 9.05859 109.199 8.82422C108.988 8.58203 108.883 8.29297 108.883 7.95703ZM119.781 22.4531C120.297 22.4531 120.773 22.3477 121.211 22.1367C121.648 21.9258 122.008 21.6367 122.289 21.2695C122.57 20.8945 122.73 20.4688 122.77 19.9922H124.832C124.793 20.7422 124.539 21.4414 124.07 22.0898C123.609 22.7305 123.004 23.25 122.254 23.6484C121.504 24.0391 120.68 24.2344 119.781 24.2344C118.828 24.2344 117.996 24.0664 117.285 23.7305C116.582 23.3945 115.996 22.9336 115.527 22.3477C115.066 21.7617 114.719 21.0898 114.484 20.332C114.258 19.5664 114.145 18.7578 114.145 17.9062V17.4141C114.145 16.5625 114.258 15.7578 114.484 15C114.719 14.2344 115.066 13.5586 115.527 12.9727C115.996 12.3867 116.582 11.9258 117.285 11.5898C117.996 11.2539 118.828 11.0859 119.781 11.0859C120.773 11.0859 121.641 11.2891 122.383 11.6953C123.125 12.0938 123.707 12.6406 124.129 13.3359C124.559 14.0234 124.793 14.8047 124.832 15.6797H122.77C122.73 15.1562 122.582 14.6836 122.324 14.2617C122.074 13.8398 121.73 13.5039 121.293 13.2539C120.863 12.9961 120.359 12.8672 119.781 12.8672C119.117 12.8672 118.559 13 118.105 13.2656C117.66 13.5234 117.305 13.875 117.039 14.3203C116.781 14.7578 116.594 15.2461 116.477 15.7852C116.367 16.3164 116.312 16.8594 116.312 17.4141V17.9062C116.312 18.4609 116.367 19.0078 116.477 19.5469C116.586 20.0859 116.77 20.5742 117.027 21.0117C117.293 21.4492 117.648 21.8008 118.094 22.0664C118.547 22.3242 119.109 22.4531 119.781 22.4531ZM126.695 17.8008V17.5312C126.695 16.6172 126.828 15.7695 127.094 14.9883C127.359 14.1992 127.742 13.5156 128.242 12.9375C128.742 12.3516 129.348 11.8984 130.059 11.5781C130.77 11.25 131.566 11.0859 132.449 11.0859C133.34 11.0859 134.141 11.25 134.852 11.5781C135.57 11.8984 136.18 12.3516 136.68 12.9375C137.188 13.5156 137.574 14.1992 137.84 14.9883C138.105 15.7695 138.238 16.6172 138.238 17.5312V17.8008C138.238 18.7148 138.105 19.5625 137.84 20.3438C137.574 21.125 137.188 21.8086 136.68 22.3945C136.18 22.9727 135.574 23.4258 134.863 23.7539C134.16 24.0742 133.363 24.2344 132.473 24.2344C131.582 24.2344 130.781 24.0742 130.07 23.7539C129.359 23.4258 128.75 22.9727 128.242 22.3945C127.742 21.8086 127.359 21.125 127.094 20.3438C126.828 19.5625 126.695 18.7148 126.695 17.8008ZM128.863 17.5312V17.8008C128.863 18.4336 128.938 19.0312 129.086 19.5938C129.234 20.1484 129.457 20.6406 129.754 21.0703C130.059 21.5 130.438 21.8398 130.891 22.0898C131.344 22.332 131.871 22.4531 132.473 22.4531C133.066 22.4531 133.586 22.332 134.031 22.0898C134.484 21.8398 134.859 21.5 135.156 21.0703C135.453 20.6406 135.676 20.1484 135.824 19.5938C135.98 19.0312 136.059 18.4336 136.059 17.8008V17.5312C136.059 16.9062 135.98 16.3164 135.824 15.7617C135.676 15.1992 135.449 14.7031 135.145 14.2734C134.848 13.8359 134.473 13.4922 134.02 13.2422C133.574 12.9922 133.051 12.8672 132.449 12.8672C131.855 12.8672 131.332 12.9922 130.879 13.2422C130.434 13.4922 130.059 13.8359 129.754 14.2734C129.457 14.7031 129.234 15.1992 129.086 15.7617C128.938 16.3164 128.863 16.9062 128.863 17.5312Z" fill="black"/>
<circle cx="14.5" cy="14.5" r="14.5" fill="#2FBA17"/>
</svg>
